<svg xmlns="http://www.w3.org/2000/svg" viewBox="0 0 50 50"><path d="M40.334 24.606c0 8.25-6.74 14.938-15.056 14.938a15.1 15.1 0 0 1-7.276-1.857l-8.335 2.647 2.717-8.017c-1.37-2.25-2.16-4.892-2.16-7.712.001-8.25 6.74-14.938 15.055-14.938s15.054 6.69 15.054 14.94zM25.277 12.05c-6.98 0-12.656 5.634-12.656 12.56 0 2.748.896 5.292 2.41 7.362l-1.58 4.663 4.862-1.545c2 1.312 4.393 2.076 6.963 2.076 6.98 0 12.658-5.633 12.658-12.56S32.257 12.05 25.277 12.05zm7.604 15.998c-.094-.15-.34-.243-.708-.427s-2.184-1.07-2.52-1.19-.586-.185-.832.182-.95 1.19-1.168 1.437-.43.276-.8.095-1.56-.57-2.97-1.817c-1.097-.972-1.838-2.17-2.052-2.536s-.022-.564.16-.746c.165-.165.37-.428.554-.643s.246-.364.37-.61.06-.458-.03-.643-.83-1.984-1.138-2.717-.614-.61-.83-.61-.46-.03-.707-.03a1.35 1.35 0 0 0-.983.456c-.337.367-1.29 1.252-1.29 3.054s1.32 3.543 1.506 3.787 2.554 4.062 6.305 5.528 3.753.976 4.43.914 2.184-.885 2.5-1.74.308-1.593.215-1.746z"/></svg>