<svg xmlns="http://www.w3.org/2000/svg" viewBox="0 0 50 50"><path d="M15.6 40.1c-.4 0-.9-.1-1.3-.4-.7-.4-1.1-1.2-1.1-2.1v-3.5C10.7 31 9.6 27 10.1 22.8 11 16.3 16.4 10.9 23 10c4.6-.6 9.2.9 12.5 4.2 3.3 3.2 4.9 7.8 4.4 12.4-.7 6.7-6.2 12.3-12.9 13.1-2.7.4-5.4 0-7.9-1.1l-2.4 1.2c-.3.2-.7.3-1.1.3zm7.7-28c-5.6.7-10.3 5.4-11 11-.5 3.6.5 7.2 2.9 10 .2.2.2.4.2.7v3.9c0 .1.1.2.1.2.1 0 .2.1.3 0l2.9-1.4c.3-.1.6-.2.9 0 2.2 1.1 4.7 1.4 7.2 1.1 5.8-.8 10.4-5.5 11.1-11.3.4-4-.9-7.9-3.8-10.7-2.9-2.7-6.8-4-10.8-3.5zm-.2-1zm-5.5 17.2l4.9-7c.2-.4.7-.5 1-.2l3.3 2.5c.2.2.5.2.8 0l4-2.8c.6-.4 1.3.3 1 .9l-4 6.9c-.2.4-.6.5-1 .3l-4.4-2.6c-.2-.1-.5-.1-.7 0l-4.1 3.1c-.6.1-1.2-.5-.8-1.1z"/></svg>